<svg xmlns="http://www.w3.org/2000/svg" xmlns:xlink="http://www.w3.org/1999/xlink" preserveAspectRatio="xMidYMid" width="161" height="24" viewBox="0 0 161 24">
  <defs>
    <style>
      .cls-1 {
        fill: #706a6a;
        opacity: 0.9;
        fill-rule: evenodd;
      }
    </style>
  </defs>
  <path d="M159.879,20.230 C159.148,21.332 158.198,22.245 157.025,22.970 C155.876,23.653 154.770,23.994 153.710,23.994 C153.267,23.994 152.814,23.906 152.350,23.731 C151.930,23.555 151.564,23.324 151.255,23.038 C150.944,22.728 150.791,22.443 150.791,22.178 C150.791,21.893 151.100,21.399 151.719,20.693 C152.317,19.988 152.736,19.635 152.980,19.635 C153.333,19.635 153.610,19.956 153.807,20.594 C154.009,21.254 154.217,21.694 154.438,21.914 C154.683,22.156 154.971,22.277 155.301,22.277 C155.743,22.277 156.174,22.135 156.595,21.848 C156.994,21.607 157.336,21.254 157.623,20.791 C157.888,20.352 158.021,19.890 158.021,19.405 C158.021,18.745 157.667,17.865 156.959,16.763 L156.065,15.311 L155.467,13.858 C155.157,14.343 154.792,14.893 154.372,15.508 C154.084,15.907 153.698,16.422 153.212,17.062 C152.858,17.524 152.494,17.975 152.117,18.414 C151.587,19.052 151.111,19.593 150.691,20.034 C150.389,20.345 150.154,20.601 149.964,20.791 C149.698,21.079 149.355,21.409 148.935,21.782 C148.825,21.893 148.637,22.058 148.371,22.277 C148.305,22.323 148.227,22.377 148.139,22.443 C147.828,22.686 147.565,22.873 147.343,23.005 C146.879,23.313 146.415,23.555 145.950,23.731 C145.463,23.906 145.010,23.994 144.590,23.994 C143.817,23.994 143.164,23.721 142.633,23.170 C142.103,22.641 141.837,21.982 141.837,21.189 C141.837,20.837 141.905,20.265 142.037,19.472 L142.235,18.217 C142.235,17.997 142.159,17.809 142.003,17.656 C141.849,17.502 141.616,17.424 141.307,17.424 C141.020,17.380 140.821,17.314 140.710,17.226 C140.600,17.115 140.544,16.973 140.544,16.797 C140.544,16.401 140.632,16.138 140.811,16.004 C140.987,15.871 141.274,15.807 141.673,15.807 C143.042,15.807 143.971,15.542 144.458,15.014 C144.943,14.485 145.188,13.969 145.188,13.461 C145.188,13.155 145.120,12.890 144.988,12.670 C144.856,12.450 144.656,12.273 144.391,12.141 C144.126,12.009 143.828,11.942 143.495,11.942 C142.788,11.942 142.148,12.152 141.573,12.570 C140.998,12.988 140.234,13.803 139.284,15.014 L138.786,18.249 L138.588,20.759 L138.522,23.301 L134.840,23.929 L134.807,23.500 C134.740,23.103 134.708,22.806 134.708,22.608 C134.664,21.904 134.640,21.342 134.640,20.924 C134.640,20.673 134.665,20.399 134.672,20.142 C133.748,20.942 132.853,21.353 131.989,21.353 C131.855,21.353 131.679,21.332 131.457,21.287 C131.204,21.243 131.016,21.189 130.861,21.122 C130.485,21.012 130.086,20.791 129.667,20.462 C128.914,21.607 128.086,22.476 127.180,23.070 C126.296,23.664 125.344,23.962 124.328,23.962 C123.509,23.962 122.780,23.742 122.140,23.301 C121.497,22.861 121.000,22.277 120.647,21.552 C120.440,21.117 120.312,20.616 120.227,20.076 C119.273,20.924 118.351,21.353 117.463,21.353 C117.329,21.353 117.153,21.332 116.932,21.287 C116.678,21.243 116.490,21.189 116.335,21.122 C115.958,21.012 115.561,20.791 115.140,20.462 C114.389,21.607 113.561,22.476 112.654,23.070 C111.770,23.664 110.819,23.962 109.803,23.962 C108.983,23.962 108.255,23.742 107.613,23.301 C106.971,22.861 106.475,22.277 106.121,21.552 C105.916,21.119 105.788,20.619 105.701,20.084 C104.752,21.004 103.917,21.751 103.202,22.311 C102.496,22.861 101.820,23.290 101.180,23.599 C100.560,23.863 99.996,23.994 99.488,23.994 C98.803,23.994 98.239,23.709 97.797,23.137 C97.354,22.565 97.133,21.893 97.133,21.122 C97.133,20.375 97.332,19.493 97.730,18.480 C98.106,17.535 98.725,16.379 99.587,15.014 C98.835,15.409 97.962,15.697 96.967,15.871 C96.900,15.885 96.702,16.333 96.657,16.403 C96.537,16.596 96.409,16.788 96.280,16.976 C95.989,17.396 95.676,17.800 95.350,18.193 C94.265,19.490 93.003,20.486 91.561,21.369 C90.764,21.858 89.948,22.312 89.132,22.769 C87.743,23.546 86.299,23.962 84.697,23.962 C84.210,23.962 83.701,23.873 83.171,23.698 C82.685,23.521 82.298,23.301 82.011,23.038 C81.723,22.773 81.579,22.476 81.579,22.145 C81.579,21.794 81.778,21.342 82.177,20.791 C82.551,20.219 82.895,19.934 83.205,19.934 C83.646,19.934 83.912,20.450 83.999,21.484 C83.999,21.925 84.077,22.234 84.233,22.410 C84.342,22.608 84.519,22.707 84.764,22.707 C85.139,22.707 85.491,22.476 85.824,22.014 C86.001,21.772 86.167,21.507 86.321,21.221 C86.388,21.090 86.509,20.803 86.686,20.363 C86.731,20.254 86.753,20.187 86.753,20.165 C87.018,19.262 87.216,18.437 87.350,17.688 C87.459,16.852 87.516,16.114 87.516,15.476 C87.516,13.517 86.808,12.427 85.394,12.207 L85.560,11.018 C86.133,11.018 86.642,10.897 87.085,10.655 C87.615,10.325 88.047,9.796 88.379,9.070 C88.709,8.366 88.875,7.573 88.875,6.693 C88.875,5.725 88.664,4.866 88.245,4.117 C87.825,3.413 87.184,2.841 86.321,2.400 C85.459,2.005 84.487,1.806 83.403,1.806 C82.298,1.806 81.225,1.982 80.186,2.334 C79.146,2.687 78.197,3.149 77.334,3.721 C76.538,4.294 75.885,4.965 75.378,5.735 C74.890,6.484 74.648,7.254 74.648,8.046 C74.648,8.993 75.157,9.676 76.174,10.094 C76.328,10.160 76.428,10.215 76.472,10.259 C76.494,10.304 76.527,10.347 76.571,10.391 L76.571,10.886 C76.571,11.084 76.151,11.371 75.312,11.744 C74.426,12.120 73.851,12.306 73.587,12.306 C73.321,12.306 73.034,12.141 72.724,11.811 C72.414,11.459 72.161,11.040 71.961,10.556 C71.762,10.050 71.663,9.587 71.663,9.170 C71.663,8.289 71.929,7.353 72.459,6.363 C72.967,5.372 73.752,4.426 74.814,3.523 C75.874,2.620 77.201,1.894 78.793,1.344 C80.363,0.794 82.197,0.519 84.299,0.519 C86.067,0.519 87.604,0.761 88.909,1.244 C90.257,1.751 91.307,2.444 92.059,3.325 C92.833,4.228 93.221,5.262 93.221,6.429 C93.221,7.177 93.054,7.871 92.722,8.509 C92.435,9.170 91.882,9.775 91.064,10.325 C90.268,10.875 89.152,11.338 87.715,11.712 C90.589,12.593 92.026,14.353 92.026,16.994 C92.026,17.919 91.849,18.800 91.496,19.635 C91.432,19.789 91.334,19.923 91.258,20.069 C91.965,19.724 92.765,19.060 93.451,18.392 C94.401,17.466 94.977,16.697 95.575,15.773 C94.647,15.334 94.183,14.728 94.183,13.958 L94.347,12.901 C94.481,12.350 94.657,11.877 94.879,11.480 C95.122,11.084 95.454,10.721 95.874,10.391 C96.315,10.061 96.813,9.896 97.366,9.896 C98.205,9.896 98.626,10.325 98.626,11.183 C98.626,11.888 98.382,12.857 97.896,14.089 C98.870,13.958 99.721,13.560 100.450,12.901 C101.135,12.284 101.854,11.315 102.606,9.994 L104.065,9.929 L102.572,14.056 L101.678,16.632 L101.180,18.283 L101.079,19.273 C101.079,19.757 101.190,20.110 101.411,20.329 C101.611,20.616 101.886,20.759 102.242,20.759 C102.440,20.759 102.672,20.705 102.938,20.594 C103.202,20.485 103.545,20.230 103.964,19.835 L105.625,18.306 C105.705,16.887 106.090,15.565 106.817,14.353 C107.657,12.966 108.741,11.877 110.067,11.084 C111.438,10.292 112.907,9.896 114.478,9.896 C115.384,9.896 116.048,9.994 116.468,10.193 C116.910,10.391 117.176,10.601 117.264,10.820 C117.308,10.931 117.329,11.030 117.329,11.117 C117.351,11.206 117.374,11.271 117.398,11.315 C117.419,11.382 117.430,11.580 117.430,11.909 C117.430,13.848 116.877,16.312 115.771,19.305 C116.346,19.813 116.921,20.066 117.495,20.066 C118.196,20.066 119.083,19.472 120.149,18.319 C120.228,16.895 120.614,15.569 121.343,14.353 C122.182,12.966 123.266,11.877 124.593,11.084 C125.964,10.292 127.433,9.896 129.004,9.896 C129.910,9.896 130.574,9.994 130.993,10.193 C131.435,10.391 131.702,10.601 131.789,10.820 C131.834,10.931 131.855,11.030 131.855,11.117 C131.877,11.206 131.900,11.271 131.923,11.315 C131.944,11.382 131.955,11.580 131.955,11.909 C131.955,13.848 131.402,16.312 130.297,19.305 C130.872,19.813 131.446,20.066 132.021,20.066 C132.740,20.066 133.653,19.451 134.759,18.233 C134.808,17.611 134.887,16.891 135.006,16.038 C135.250,14.541 135.581,13.055 136.001,11.580 C136.421,10.126 136.985,8.663 137.692,7.187 C138.068,6.440 138.455,5.691 138.854,4.943 C139.665,3.418 140.558,2.126 141.974,1.104 C142.675,0.597 143.473,0.174 144.351,0.111 C145.083,0.060 145.863,0.249 146.393,0.778 C146.936,1.319 147.243,2.303 147.243,3.060 C147.243,4.008 146.967,4.998 146.415,6.033 C145.862,7.089 144.833,8.509 143.330,10.292 C144.237,10.028 144.999,9.896 145.618,9.896 C146.613,9.896 147.431,10.149 148.073,10.655 C148.714,11.162 149.033,11.811 149.033,12.603 C149.033,13.110 148.891,13.606 148.603,14.089 C148.338,14.530 147.828,14.981 147.077,15.443 C146.348,15.861 145.386,16.224 144.192,16.532 C145.453,16.820 146.082,17.556 146.082,18.745 L146.082,18.942 L146.050,19.339 L146.017,19.835 L145.983,20.198 C145.983,20.859 146.293,21.189 146.913,21.189 C147.310,21.189 147.763,21.001 148.272,20.627 C148.603,20.363 148.946,20.055 149.300,19.703 C149.675,19.328 149.964,19.020 150.161,18.779 L150.327,18.583 C150.353,18.553 150.374,18.523 150.400,18.497 L150.692,18.150 C151.692,17.075 152.619,15.943 153.444,14.750 C154.461,13.297 155.203,11.909 155.667,10.589 L156.859,10.325 L158.486,10.028 L159.281,9.929 L159.446,10.061 C159.446,10.237 159.401,10.402 159.314,10.556 C159.137,11.129 159.048,11.602 159.048,11.975 C159.048,12.526 159.336,13.219 159.910,14.056 C160.331,14.651 160.608,15.156 160.740,15.576 C160.918,16.102 161.005,16.566 161.005,16.962 C161.005,18.040 160.630,19.130 159.879,20.230 ZM114.246,10.952 C113.162,10.952 112.310,11.326 111.692,12.075 C111.006,12.846 110.520,13.803 110.233,14.947 C109.922,16.138 109.769,17.237 109.769,18.249 C109.769,19.373 109.957,20.219 110.332,20.791 C110.708,21.386 111.172,21.683 111.725,21.683 C112.498,21.683 113.328,20.979 114.213,19.570 C113.195,18.359 112.688,16.994 112.688,15.476 C112.688,14.573 112.875,13.770 113.251,13.066 C113.604,12.405 114.168,11.723 114.942,11.018 L114.246,10.952 ZM128.772,10.952 C127.688,10.952 126.837,11.326 126.218,12.075 C125.532,12.846 125.046,13.803 124.759,14.947 C124.449,16.138 124.294,17.237 124.294,18.249 C124.294,19.373 124.482,20.219 124.859,20.791 C125.233,21.386 125.698,21.683 126.251,21.683 C127.024,21.683 127.855,20.979 128.738,19.570 C127.721,18.359 127.213,16.994 127.213,15.476 C127.213,14.573 127.401,13.770 127.777,13.066 C128.130,12.405 128.693,11.723 129.467,11.018 L128.772,10.952 ZM143.662,8.046 C144.281,7.210 144.822,6.385 145.287,5.571 C145.685,4.800 145.884,4.129 145.884,3.556 C145.884,3.205 145.818,2.951 145.685,2.797 C145.529,2.643 145.308,2.565 145.022,2.565 C144.645,2.565 144.203,2.852 143.696,3.424 C143.164,3.997 142.601,4.976 142.003,6.363 C141.428,7.706 140.788,9.664 140.080,12.241 L141.141,11.051 C142.113,9.951 142.954,8.949 143.662,8.046 ZM72.493,18.679 L72.359,19.670 L72.227,20.727 C72.227,22.046 72.802,22.707 73.951,22.707 C74.703,22.707 75.410,22.356 76.074,21.651 C76.758,20.947 77.311,19.966 77.732,18.711 C78.174,17.457 78.506,15.971 78.727,14.254 C78.993,12.339 79.213,11.030 79.390,10.325 C79.611,9.335 79.887,8.520 80.219,7.882 C80.528,7.221 80.960,6.606 81.513,6.033 C81.800,5.747 82.197,5.427 82.707,5.075 C82.772,5.031 82.883,4.965 83.039,4.877 C83.171,4.789 83.282,4.723 83.371,4.679 L83.635,4.547 C83.878,4.437 84.022,4.371 84.067,4.348 C84.509,4.150 84.896,4.051 85.228,4.051 C85.515,4.051 85.803,4.294 86.090,4.778 C85.625,5.218 85.250,5.669 84.962,6.132 C84.697,6.572 84.476,7.166 84.299,7.915 C84.121,8.685 83.967,9.587 83.835,10.622 C83.768,11.261 83.690,11.844 83.602,12.372 C83.536,12.924 83.491,13.307 83.469,13.528 C83.381,14.079 83.227,14.861 83.005,15.871 C82.717,17.193 82.187,18.404 81.414,19.504 C80.794,20.450 80.053,21.254 79.192,21.914 C78.374,22.554 77.423,23.059 76.339,23.433 C75.278,23.808 74.173,23.994 73.023,23.994 C71.607,23.994 70.513,23.698 69.740,23.103 C68.965,22.508 68.579,21.651 68.579,20.528 L68.678,19.536 C68.812,19.451 68.943,19.351 69.076,19.241 C69.297,19.042 69.442,18.921 69.508,18.877 C69.840,18.679 70.160,18.491 70.468,18.316 C71.154,17.965 71.630,17.788 71.895,17.788 C72.293,17.788 72.493,18.086 72.493,18.679 ZM60.865,21.764 C60.593,22.026 60.215,22.355 59.732,22.750 L59.417,23.014 C58.703,23.562 57.989,23.836 57.276,23.836 C55.743,23.836 54.977,22.345 54.977,19.363 C53.949,20.897 52.994,22.026 52.112,22.750 C51.230,23.474 50.348,23.836 49.467,23.836 C48.858,23.836 48.323,23.627 47.862,23.211 C47.336,22.794 46.937,22.235 46.665,21.534 C46.469,21.054 46.364,20.552 46.298,20.042 C43.942,22.588 42.184,23.868 41.029,23.868 C40.357,23.868 39.801,23.506 39.361,22.784 C38.919,22.081 38.698,21.215 38.698,20.185 C38.698,20.144 38.702,20.105 38.703,20.063 C37.282,21.408 36.081,22.377 35.109,22.947 C34.081,23.539 33.105,23.836 32.181,23.836 C31.425,23.836 30.774,23.627 30.230,23.211 C29.682,22.837 29.264,22.256 28.970,21.467 C28.794,20.997 28.688,20.501 28.618,19.991 C28.004,20.608 27.552,21.038 27.270,21.270 C26.723,21.774 26.324,22.115 26.073,22.290 C25.338,22.860 24.624,23.255 23.932,23.474 C23.469,23.606 23.124,23.693 22.893,23.737 C22.556,23.803 22.178,23.836 21.759,23.836 C20.353,23.836 19.229,23.365 18.390,22.421 C17.757,21.729 17.361,20.883 17.194,19.894 C16.081,21.063 14.864,22.015 13.542,22.784 C12.240,23.550 10.530,23.935 8.409,23.935 C6.792,23.935 5.344,23.550 4.063,22.784 C2.804,22.081 1.807,21.063 1.071,19.724 C0.359,18.453 0.002,16.962 0.002,15.251 C0.002,13.300 0.349,11.424 1.040,9.626 C1.671,7.872 2.594,6.282 3.812,4.857 C4.987,3.498 6.246,2.446 7.590,1.699 C8.892,0.954 10.225,0.581 11.589,0.581 C12.618,0.581 13.510,0.789 14.265,1.206 C15.041,1.645 15.630,2.248 16.028,3.015 C16.427,3.782 16.627,4.649 16.627,5.613 C16.627,6.907 16.364,8.092 15.840,9.166 C15.294,10.263 14.601,11.139 13.762,11.797 C12.921,12.454 11.987,12.783 10.960,12.783 C10.204,12.783 9.553,12.564 9.007,12.126 C8.482,11.710 8.219,11.161 8.219,10.481 C8.219,9.889 8.440,9.352 8.882,8.870 C9.238,9.506 9.689,9.824 10.235,9.824 C10.740,9.824 11.253,9.583 11.778,9.101 C12.282,8.595 12.723,7.938 13.101,7.126 C13.416,6.337 13.572,5.526 13.572,4.692 C13.572,3.793 13.384,3.080 13.006,2.554 C12.585,2.050 12.050,1.798 11.401,1.798 C10.665,1.798 9.878,2.182 9.038,2.949 C8.262,3.651 7.516,4.616 6.804,5.844 C6.153,7.006 5.618,8.343 5.197,9.857 C4.777,11.369 4.568,12.751 4.568,14.001 C4.568,16.261 5.176,18.092 6.394,19.494 C7.633,20.941 9.175,21.664 11.023,21.664 C12.198,21.664 13.237,21.390 14.140,20.843 C15.065,20.305 16.063,19.406 17.129,18.153 C17.193,17.259 17.387,16.357 17.728,15.448 C18.149,14.352 18.695,13.387 19.366,12.553 C20.059,11.742 20.835,11.085 21.697,10.580 C22.536,10.098 23.428,9.857 24.373,9.857 C25.275,9.857 26.031,10.109 26.639,10.613 C27.228,11.096 27.521,11.776 27.521,12.653 C27.521,13.617 27.153,14.451 26.419,15.153 C25.643,15.854 24.834,16.402 23.995,16.796 C23.239,17.171 22.158,17.586 20.751,18.046 C20.983,19.055 21.359,19.834 21.885,20.383 C22.452,20.908 23.144,21.171 23.963,21.171 C24.446,21.171 24.949,21.052 25.474,20.810 C25.958,20.567 26.399,20.273 26.797,19.923 L28.574,18.190 C28.624,17.010 28.768,15.734 29.063,14.297 C29.421,12.609 29.830,11.029 30.292,9.560 C30.733,8.179 31.257,6.765 31.867,5.317 C31.992,5.010 32.108,4.747 32.213,4.528 C32.338,4.199 32.411,4.013 32.433,3.969 L32.653,3.508 C32.983,2.793 33.297,2.062 33.801,1.458 C34.520,0.600 35.430,-0.172 36.593,0.061 C37.223,0.189 37.828,0.573 38.175,1.144 C38.541,1.742 38.510,2.402 38.510,3.080 C38.510,4.572 38.310,5.975 37.911,7.290 C37.491,8.673 36.842,10.065 35.959,11.468 C35.015,12.960 33.881,14.462 32.559,15.974 L32.433,18.276 C32.433,19.196 32.601,19.932 32.936,20.480 C33.252,21.029 33.681,21.303 34.228,21.303 C34.920,21.303 35.560,21.063 36.149,20.579 C36.672,20.165 37.572,19.333 38.847,18.089 C38.956,17.280 39.125,16.467 39.361,15.644 C39.632,14.571 39.927,13.573 40.242,12.653 C40.451,11.973 40.671,11.326 40.903,10.712 L44.807,9.857 L44.997,9.857 L43.453,14.889 L42.729,17.586 C42.582,18.179 42.508,18.759 42.508,19.329 C42.508,19.680 42.582,19.965 42.729,20.185 C42.876,20.405 43.065,20.514 43.296,20.514 C43.737,20.514 44.156,20.338 44.556,19.986 C44.702,19.876 44.964,19.625 45.342,19.230 C45.727,18.829 46.034,18.497 46.292,18.212 C46.402,17.307 46.648,16.419 47.043,15.546 C47.589,14.384 48.281,13.375 49.120,12.521 C49.980,11.665 50.853,10.997 51.735,10.514 C52.637,10.032 53.476,9.791 54.254,9.791 C55.533,9.791 56.426,10.405 56.930,11.633 L60.078,9.824 L60.928,9.824 L59.574,14.527 L58.881,17.256 C58.651,18.332 58.535,19.044 58.535,19.395 C58.535,19.834 58.630,20.173 58.818,20.415 C58.986,20.656 59.206,20.776 59.480,20.776 C59.857,20.776 60.215,20.613 60.551,20.284 C60.718,20.130 60.971,19.910 61.307,19.625 C61.327,19.582 61.380,19.526 61.464,19.460 C61.715,19.219 62.166,18.759 62.817,18.079 L62.817,19.923 C62.629,20.096 62.440,20.273 62.251,20.447 C61.622,21.063 61.159,21.500 60.865,21.764 ZM23.585,15.316 C24.236,14.637 24.562,13.760 24.562,12.685 C24.562,12.182 24.466,11.797 24.278,11.534 C24.089,11.271 23.826,11.139 23.491,11.139 C23.134,11.139 22.714,11.369 22.231,11.830 C21.727,12.357 21.339,13.036 21.066,13.870 C20.773,14.791 20.625,15.821 20.625,16.962 C21.927,16.566 22.914,16.018 23.585,15.316 ZM35.235,10.416 C35.886,9.253 36.400,8.059 36.778,6.831 C37.156,5.647 37.345,4.616 37.345,3.739 C37.345,3.388 37.293,3.070 37.188,2.785 C37.062,2.544 36.915,2.423 36.747,2.423 C36.578,2.423 36.400,2.576 36.211,2.884 C36.044,3.146 35.876,3.464 35.708,3.837 C35.539,4.232 35.425,4.506 35.360,4.660 C35.151,5.186 35.005,5.570 34.920,5.811 C34.732,6.359 34.584,6.842 34.479,7.258 C33.955,8.968 33.450,11.096 32.968,13.640 C33.850,12.653 34.606,11.578 35.235,10.416 ZM55.481,11.633 C55.230,11.283 54.872,11.106 54.411,11.106 C53.696,11.106 53.014,11.546 52.364,12.422 C51.692,13.322 51.157,14.384 50.758,15.613 C50.338,16.884 50.128,17.970 50.128,18.869 C50.128,19.416 50.275,19.876 50.569,20.250 C50.864,20.624 51.199,20.810 51.577,20.810 C52.269,20.810 52.952,20.360 53.623,19.460 C54.295,18.563 54.830,17.509 55.230,16.303 C55.628,15.119 55.828,14.022 55.828,13.013 C55.828,12.466 55.711,12.006 55.481,11.633 ZM43.412,8.639 C42.185,8.639 41.192,7.600 41.192,6.321 C41.192,5.040 42.185,4.002 43.412,4.002 C44.638,4.002 45.632,5.040 45.632,6.321 C45.632,7.600 44.638,8.639 43.412,8.639 Z" class="cls-1"/>
</svg>
