<?xml version="1.0" encoding="UTF-8"?>
<svg width="206px" height="53px" viewBox="0 0 206 53" version="1.1" xmlns="http://www.w3.org/2000/svg" xmlns:xlink="http://www.w3.org/1999/xlink">
    <!-- Generator: Sketch 42 (36781) - http://www.bohemiancoding.com/sketch -->
    <title>Growth hub logo - blue Copy</title>
    <desc>Created with Sketch.</desc>
    <defs></defs>
    <g id="Symbols" stroke="none" stroke-width="1" fill="none" fill-rule="evenodd">
        <g id="Growth-hub-logo---blue-Copy">
            <g id="Growth-hub-logo">
                <polygon id="Fill-1" fill="#008ECA" points="153.286597 52.5099983 205.869673 52.5099983 205.869673 0 153.286597 0"></polygon>
                <polygon id="Fill-2" fill="#B8CDD8" points="0 13.3710604 0 17.2930604 4.51623469 17.2930604 4.51623469 40.8229614 8.83645408 40.8229614 8.83645408 17.2930604 13.3526888 17.2930604 13.3526888 13.3710604"></polygon>
                <path d="M178.319694,13 L178.319694,34.1774356 C178.319694,36.1384356 179.183633,36.8442277 180.557842,36.8442277 C181.932577,36.8442277 182.796515,36.1384356 182.796515,34.1774356 L182.796515,13 L186.881306,13 L186.881306,33.9029901 C186.881306,38.2946436 184.682046,40.8050594 180.440653,40.8050594 C176.198735,40.8050594 174,38.2946436 174,33.9029901 L174,13 L178.319694,13 Z" id="Fill-3" fill="#FFFFFF"></path>
                <path d="M202.542616,19.6850921 L202.542616,20.6653297 C202.542616,23.4890228 201.678152,25.2931218 199.754259,26.1951713 C202.071233,27.0972208 202.974585,29.1757653 202.974585,32.0771218 L202.974585,34.3130921 C202.974585,38.5483693 200.735386,40.8231713 196.415692,40.8231713 L189.621371,40.8231713 L189.621371,13.3707455 L196.140851,13.3707455 C200.618197,13.3707455 202.542616,15.4492901 202.542616,19.6850921 L202.542616,19.6850921 Z M193.941065,17.2927455 L193.941065,24.5474485 L195.630055,24.5474485 C197.240218,24.5474485 198.221871,23.8416564 198.221871,21.6460921 L198.221871,20.1164386 C198.221871,18.1554386 197.554473,17.2927455 196.022611,17.2927455 L193.941065,17.2927455 Z M193.941065,28.4694485 L193.941065,36.9006465 L196.415692,36.9006465 C197.868728,36.9006465 198.654366,36.2342109 198.654366,34.1950228 L198.654366,31.803201 C198.654366,29.2539535 197.829315,28.4694485 195.866009,28.4694485 L193.941065,28.4694485 Z" id="Fill-5" fill="#FFFFFF"></path>
                <path d="M56.9708765,25.5285782 L63.0168714,25.5285782 L63.0168714,34.2310733 C63.0168714,38.622202 60.8181367,41.1315683 56.5783204,41.1315683 C52.3385041,41.1315683 50.1402949,38.622202 50.1402949,34.2310733 L50.1402949,19.962004 C50.1402949,15.5714 52.3385041,13.0625584 56.5783204,13.0625584 C60.8181367,13.0625584 63.0168714,15.5714 63.0168714,19.962004 L63.0168714,22.6277465 L58.9336571,22.6277465 L58.9336571,19.6875584 C58.9336571,17.7276079 58.0702439,16.9829842 56.6960347,16.9829842 C55.322351,16.9829842 54.4584122,17.7276079 54.4584122,19.6875584 L54.4584122,34.5060436 C54.4584122,36.4654693 55.322351,37.1712614 56.6960347,37.1712614 C58.0702439,37.1712614 58.9336571,36.4654693 58.9336571,34.5060436 L58.9336571,29.449004 L56.9708765,29.449004 L56.9708765,25.5285782 Z" id="Fill-7" fill="#4D6273"></path>
                <path d="M74.5218663,40.8171366 C74.2864378,40.1113446 74.1293102,39.679998 74.1293102,37.445602 L74.1293102,33.1337109 C74.1293102,30.5855129 73.2653714,29.6446317 71.3031163,29.6446317 L69.8106673,29.6446317 L69.8106673,40.8171366 L65.49255,40.8171366 L65.49255,13.3762554 L72.009402,13.3762554 C76.4846469,13.3762554 78.4085398,15.4537505 78.4085398,19.6874535 L78.4085398,21.8436614 C78.4085398,24.666305 77.5057133,26.5087109 75.5818204,27.4102356 C77.7411418,28.3117604 78.4479531,30.3897802 78.4479531,33.2517802 L78.4479531,37.4849584 C78.4479531,38.8178297 78.4868408,39.7980673 78.9188102,40.8171366 L74.5218663,40.8171366 Z M69.8106673,17.2966812 L69.8106673,25.7247307 L71.4991316,25.7247307 C73.1087694,25.7247307 74.0904224,25.0194634 74.0904224,22.823899 L74.0904224,20.1188 C74.0904224,18.1588495 73.4230245,17.2966812 71.8916878,17.2966812 L69.8106673,17.2966812 Z" id="Fill-9" fill="#4D6273"></path>
                <path d="M80.9187969,19.9620564 C80.9187969,15.5714525 83.2352459,13.0626109 87.4750622,13.0626109 C91.7148786,13.0626109 94.030802,15.5714525 94.030802,19.9620564 L94.030802,34.2311257 C94.030802,38.6222545 91.7148786,41.131096 87.4750622,41.131096 C83.2352459,41.131096 80.9187969,38.6222545 80.9187969,34.2311257 L80.9187969,19.9620564 Z M85.2369143,34.506096 C85.2369143,36.4655218 86.1008531,37.2106703 87.4750622,37.2106703 C88.8492714,37.2106703 89.7126847,36.4655218 89.7126847,34.506096 L89.7126847,19.6876109 C89.7126847,17.7276604 88.8492714,16.9830366 87.4750622,16.9830366 C86.1008531,16.9830366 85.2369143,17.7276604 85.2369143,19.6876109 L85.2369143,34.506096 Z" id="Fill-11" fill="#4D6273"></path>
                <polygon id="Fill-13" fill="#4D6273" points="105.930613 26.1952762 104.360388 40.8169792 98.4326332 40.8169792 95.3704852 13.3766228 99.5708883 13.3766228 101.887337 35.0153158 103.967832 13.3766228 108.129347 13.3766228 110.288669 35.1722168 112.526291 13.3766228 116.294725 13.3766228 113.232577 40.8169792 107.501363 40.8169792"></polygon>
                <polygon id="Fill-15" fill="#4D6273" points="117.65937 13.3765178 131.006804 13.3765178 131.006804 17.2969436 126.492145 17.2969436 126.492145 40.817399 122.174028 40.817399 122.174028 17.2969436 117.65937 17.2969436"></polygon>
                <polygon id="Fill-17" fill="#4D6273" points="143.442477 40.8171366 147.839421 40.8171366 147.839421 29.0574337 147.839421 25.1364832 147.839421 13.3762554 143.442477 13.3762554"></polygon>
                <polygon id="Fill-19" fill="#4D6273" points="143.442477 27.0644238 141.872778 25.1364832 137.207824 25.1364832 137.207824 13.3762554 132.889707 13.3762554 132.889707 40.8171366 137.207824 40.8171366 137.207824 29.0574337 141.872778 29.0574337"></polygon>
                <polygon id="Fill-21" fill="#FFFFFF" points="166.37837 40.8171366 170.775314 40.8171366 170.775314 29.0574337 170.775314 25.1364832 170.775314 13.3762554 166.37837 13.3762554"></polygon>
                <polygon id="Fill-23" fill="#FFFFFF" points="166.37837 27.0644238 164.808671 25.1364832 160.143717 25.1364832 160.143717 13.3762554 155.825599 13.3762554 155.825599 40.8171366 160.143717 40.8171366 160.143717 29.0574337 164.808671 29.0574337"></polygon>
                <polygon id="Fill-25" fill="#B8CDD8" points="26.4987469 40.8171366 30.8956908 40.8171366 30.8956908 29.0574337 30.8956908 25.1364832 30.8956908 13.3762554 26.4987469 13.3762554"></polygon>
                <polygon id="Fill-27" fill="#B8CDD8" points="26.4987469 27.0644238 24.929048 25.1364832 20.2640939 25.1364832 20.2640939 13.3762554 15.9459765 13.3762554 15.9459765 40.8171366 20.2640939 40.8171366 20.2640939 29.0574337 24.929048 29.0574337"></polygon>
                <polygon id="Fill-29" fill="#B8CDD8" points="38.2637117 28.8613337 43.6170842 28.8613337 43.6170842 24.9403832 38.2637117 24.9403832 38.2637117 17.2926406 45.7259566 17.2926406 45.7259566 13.3706406 33.9440179 13.3706406 33.9440179 40.8230663 45.7259566 40.8230663 45.7259566 36.9010663 38.2637117 36.9010663"></polygon>
            </g>
        </g>
    </g>
</svg>